HIERARCHY
ROOT joint_Root
{
	OFFSET 0.0 0.0 0.0
	CHANNELS 6 Xposition Yposition Zposition Zrotation Xrotation Yrotation 
	JOINT Hips
	{
		OFFSET 4.5925 91.4895 -427.239
		CHANNELS 6 Xposition Yposition Zposition Zrotation Xrotation Yrotation 
		JOINT Spine
		{
			OFFSET 15.7357 0.0 0.0
			CHANNELS 6 Xposition Yposition Zposition Zrotation Xrotation Yrotation 
			JOINT Chest
			{
				OFFSET 8.98455 -0.406207 0.0
				CHANNELS 6 Xposition Yposition Zposition Zrotation Xrotation Yrotation 
				JOINT Neck
				{
					OFFSET 16.3773 0.0 0.0
					CHANNELS 6 Xposition Yposition Zposition Zrotation Xrotation Yrotation 
					JOINT Head
					{
						OFFSET 6.45672 0.0 0.0
						CHANNELS 6 Xposition Yposition Zposition Zrotation Xrotation Yrotation 
						End Site
						{
							OFFSET 0.0 0.0 0.0
						}
					}
				}
				JOINT Shoulder_L
				{
					OFFSET 12.9942 -0.242716 4.98039
					CHANNELS 6 Xposition Yposition Zposition Zrotation Xrotation Yrotation 
					JOINT UpperArm_L
					{
						OFFSET 5.34809 0.0 0.0
						CHANNELS 6 Xposition Yposition Zposition Zrotation Xrotation Yrotation 
						JOINT LowerArm_L
						{
							OFFSET 24.3286 1.87007e-05 0.0
							CHANNELS 6 Xposition Yposition Zposition Zrotation Xrotation Yrotation 
							JOINT Hand_L
							{
								OFFSET 22.2916 0.0 0.0
								CHANNELS 6 Xposition Yposition Zposition Zrotation Xrotation Yrotation 
								End Site
								{
									OFFSET 0.0 0.0 0.0
								}
							}
						}
					}
				}
				JOINT Shoulder_R
				{
					OFFSET 12.9945 -0.242716 -4.98039
					CHANNELS 6 Xposition Yposition Zposition Zrotation Xrotation Yrotation 
					JOINT UpperArm_R
					{
						OFFSET -5.34813 0.0 0.0
						CHANNELS 6 Xposition Yposition Zposition Zrotation Xrotation Yrotation 
						JOINT LowerArm_R
						{
							OFFSET -24.3289 0.000322201 0.0
							CHANNELS 6 Xposition Yposition Zposition Zrotation Xrotation Yrotation 
							JOINT Hand_R
							{
								OFFSET -22.2915 -0.000108084 0.0
								CHANNELS 6 Xposition Yposition Zposition Zrotation Xrotation Yrotation 
								End Site
								{
									OFFSET 0.0 0.0 0.0
								}
							}
						}
					}
				}
			}
		}
		JOINT UpperLeg_L
		{
			OFFSET -2.19248 -6.46944 0.0
			CHANNELS 6 Xposition Yposition Zposition Zrotation Xrotation Yrotation 
			JOINT LowerLeg_L
			{
				OFFSET 39.0811 0.0 -1.23785e-05
				CHANNELS 6 Xposition Yposition Zposition Zrotation Xrotation Yrotation 
				JOINT Foot_L
				{
					OFFSET 40.9854 0.0 -1.26872e-05
					CHANNELS 6 Xposition Yposition Zposition Zrotation Xrotation Yrotation 
					JOINT Toes_L
					{
						OFFSET 11.7543 0.0 0.0
						CHANNELS 6 Xposition Yposition Zposition Zrotation Xrotation Yrotation 
						End Site
						{
							OFFSET 0.0 0.0 0.0
						}
					}
				}
			}
		}
		JOINT UpperLeg_R
		{
			OFFSET -2.19251 6.46944 0.0
			CHANNELS 6 Xposition Yposition Zposition Zrotation Xrotation Yrotation 
			JOINT LowerLeg_R
			{
				OFFSET -39.0811 -0.00228153 -0.0401928
				CHANNELS 6 Xposition Yposition Zposition Zrotation Xrotation Yrotation 
				JOINT Foot_R
				{
					OFFSET -40.9854 0.0 0.0
					CHANNELS 6 Xposition Yposition Zposition Zrotation Xrotation Yrotation 
					JOINT Toes_R
					{
						OFFSET -11.7543 0.0 0.0
						CHANNELS 6 Xposition Yposition Zposition Zrotation Xrotation Yrotation 
						End Site
						{
							OFFSET 0.0 0.0 0.0
						}
					}
				}
			}
		}
	}
}
MOTION
Frames:	6
Frame Time:	0.0333333
0.000000 0.000000 0.000000 0.000000 0.000000 -0.000000 0.057264 84.394500 -0.155023 92.379800 2.157850 10.767000 15.735700 0.000005 -0.000001 96.058900 80.097900 -96.153200 8.984550 -0.406207 -0.000000 11.934800 2.068850 -0.404996 16.377300 -0.000001 -0.000001 -1.874980 -7.706900 2.331280 6.456720 -0.000001 -0.000000 -9.503330 -11.463400 5.153270 12.994200 -0.242716 4.980390 -92.165000 6.691300 -72.024700 5.348090 -0.000007 -0.000001 -65.378400 12.246300 -19.200200 24.328600 0.000019 0.000005 1.121160 2.610100 -23.263900 22.291600 -0.000001 0.000005 7.830850 4.821720 10.941000 12.994500 -0.242716 -4.980390 88.464300 8.946210 -80.218100 -5.348130 -0.000001 -0.000004 -61.693200 22.858600 -5.360640 -24.328900 0.000322 -0.000009 -3.278070 -5.366570 -31.459600 -22.291500 -0.000108 -0.000004 18.574800 5.504210 -6.709100 -2.192480 -6.469440 -0.000000 -178.188000 -7.940940 -12.220400 39.081100 -0.000007 -0.000012 -0.530054 0.373187 54.853600 40.985400 -0.000006 -0.000013 0.849427 4.182650 -81.862200 11.754300 -0.000000 0.000003 -0.000378 -0.003157 -16.694200 -2.192510 6.469440 -0.000001 171.711000 18.248800 168.346000 -39.081100 -0.002282 -0.040193 0.097785 -0.061133 57.119600 -40.985400 0.000008 0.000006 5.779240 4.596480 -83.253000 -11.754300 -0.000006 -0.000006 -0.566556 -0.695363 -17.325700
0.000000 0.000000 0.000000 0.000000 0.000000 -0.000000 1.093230 85.920900 1.036990 93.299100 -0.190971 11.408000 15.735700 0.000005 -0.000001 98.468300 80.799500 -97.215000 8.984550 -0.406207 -0.000000 10.414100 2.720280 2.257380 16.377300 -0.000001 -0.000001 0.145183 -7.122340 3.185740 6.456720 -0.000001 -0.000000 -8.270260 -9.555970 1.832050 12.994200 -0.242716 4.980390 -92.001700 5.925290 -71.294900 5.348090 -0.000007 -0.000001 -59.369400 5.171280 -16.987900 24.328600 0.000019 0.000005 2.285000 6.512590 -19.389300 22.291600 -0.000001 0.000005 5.824780 4.635000 14.291100 12.994500 -0.242716 -4.980390 88.438300 8.199550 -79.177300 -5.348130 -0.000001 -0.000004 -61.498400 18.248200 -4.711830 -24.328900 0.000322 -0.000009 -1.954480 -3.954960 -26.310300 -22.291500 -0.000108 -0.000004 20.410500 5.426420 -3.845240 -2.192480 -6.469440 -0.000000 -179.338000 -10.028700 -7.493610 39.081100 -0.000007 -0.000012 -0.448239 0.387689 49.144000 40.985400 -0.000006 -0.000013 1.088530 3.484720 -80.269800 11.754300 -0.000000 0.000003 -0.000339 -0.002884 -16.684600 -2.192510 6.469440 -0.000001 170.211000 15.401200 171.607000 -39.081100 -0.002282 -0.040193 0.071590 -0.052445 52.501900 -40.985400 0.000008 0.000006 4.913700 5.211600 -81.124200 -11.754300 -0.000006 -0.000006 -0.584041 -0.715907 -17.604400
0.000000 0.000000 0.000000 0.000000 0.000000 -0.000000 1.931550 87.714400 1.897890 93.756700 -2.362850 10.164400 15.735700 0.000005 -0.000001 102.020000 82.272500 -99.227700 8.984550 -0.406207 -0.000000 7.286670 3.195200 5.376860 16.377300 -0.000001 -0.000001 3.136500 -6.322280 3.800850 6.456720 -0.000001 -0.000000 -7.283720 -8.024070 -1.652220 12.994200 -0.242716 4.980390 -91.437000 4.033930 -70.371400 5.348090 -0.000007 -0.000001 -54.016800 -12.084400 -16.589000 24.328600 0.000019 0.000005 0.807052 2.428550 -18.423700 22.291600 -0.000001 0.000005 10.709900 4.554090 15.705000 12.994500 -0.242716 -4.980390 88.458300 7.235850 -77.937400 -5.348130 -0.000001 -0.000004 -60.859800 13.624900 -3.178200 -24.328900 0.000322 -0.000009 -1.948840 -4.611040 -22.933300 -22.291500 -0.000108 -0.000004 21.698900 5.350720 -1.397180 -2.192480 -6.469440 -0.000000 179.646000 -11.695500 -4.438680 39.081100 -0.000007 -0.000012 -0.342633 0.380852 41.976800 40.985400 -0.000006 -0.000013 1.167810 2.830250 -77.550000 11.754300 -0.000000 0.000003 -0.000246 -0.002207 -16.660300 -2.192510 6.469440 -0.000001 169.808000 13.598900 173.144000 -39.081100 -0.002282 -0.040193 0.049763 -0.043872 46.668000 -40.985400 0.000008 0.000006 4.267060 6.053280 -77.788300 -11.754300 -0.000006 -0.000006 -0.581089 -0.710982 -18.202200
0.000000 0.000000 0.000000 0.000000 0.000000 -0.000000 2.456490 89.029100 2.406100 93.936600 -3.577500 8.154120 15.735700 0.000005 -0.000001 107.734000 83.790200 -103.671000 8.984550 -0.406207 -0.000000 3.953740 3.642680 7.993420 16.377300 -0.000001 -0.000001 5.851100 -5.819920 4.578940 6.456720 -0.000001 -0.000000 -6.990580 -7.662020 -3.846590 12.994200 -0.242716 4.980390 -90.801600 2.175250 -69.763500 5.348090 -0.000007 -0.000001 -45.179400 -26.076900 -20.987400 24.328600 0.000019 0.000005 -2.873440 -7.288620 -21.575900 22.291600 -0.000001 0.000005 13.574000 4.738440 12.453700 12.994500 -0.242716 -4.980390 88.398800 6.805070 -76.726200 -5.348130 -0.000001 -0.000004 -58.721100 9.760280 -0.715469 -24.328900 0.000322 -0.000009 -2.675920 -6.727810 -21.743200 -22.291500 -0.000108 -0.000004 18.993400 5.360150 -1.695590 -2.192480 -6.469440 -0.000000 179.188000 -13.996700 -3.079320 39.081100 -0.000007 -0.000012 -0.220005 0.302432 36.034500 40.985400 -0.000006 -0.000013 1.634660 3.900290 -75.070200 11.754300 -0.000000 0.000003 -0.000128 -0.001267 -16.625900 -2.192510 6.469440 -0.000001 169.711000 13.722100 173.531000 -39.081100 -0.002282 -0.040193 0.037648 -0.038513 41.750500 -40.985400 0.000008 0.000006 4.091210 7.179020 -75.274000 -11.754300 -0.000006 -0.000006 -0.474859 -0.586649 -18.455400
0.000000 0.000000 0.000000 0.000000 0.000000 -0.000000 2.511990 89.553600 2.755570 93.836800 -3.515890 7.333810 15.735700 0.000005 -0.000001 110.207000 84.641200 -105.484000 8.984550 -0.406207 -0.000000 2.170500 3.469310 9.371190 16.377300 -0.000001 -0.000001 7.139630 -6.037130 5.622880 6.456720 -0.000001 -0.000000 -7.560400 -8.102630 -4.739590 12.994200 -0.242716 4.980390 -89.825900 -0.488491 -70.337800 5.348090 -0.000007 -0.000001 -32.865300 -36.530100 -25.635000 24.328600 0.000019 0.000005 -4.005560 -7.369390 -28.622000 22.291600 -0.000001 0.000005 14.549600 5.060270 6.045540 12.994500 -0.242716 -4.980390 88.168300 7.236920 -75.755900 -5.348130 -0.000001 -0.000004 -55.935500 9.001280 1.095140 -24.328900 0.000322 -0.000009 -3.157400 -8.457610 -20.553300 -22.291500 -0.000108 -0.000004 15.867300 5.389650 -2.607200 -2.192480 -6.469440 -0.000000 179.616000 -15.816100 -2.222040 39.081100 -0.000007 -0.000012 -0.103290 0.156352 33.450100 40.985400 -0.000006 -0.000013 2.542000 6.127770 -74.163300 11.754300 -0.000000 0.000003 -0.217727 -0.275954 -16.423200 -2.192510 6.469440 -0.000001 169.775000 14.692600 174.543000 -39.081100 -0.002282 -0.040193 0.034071 -0.038188 38.878000 -40.985400 0.000008 0.000006 4.255940 7.735860 -74.995600 -11.754300 -0.000006 -0.000006 -0.024335 -0.059934 -17.988600
0.000000 0.000000 0.000000 0.000000 0.000000 -0.000000 2.272800 89.409900 2.807100 93.219800 -2.449380 7.449140 15.735700 0.000005 -0.000001 106.439000 84.796800 -101.505000 8.984550 -0.406207 -0.000000 2.120110 2.700460 9.809430 16.377300 -0.000001 -0.000001 6.592270 -7.086150 5.676980 6.456720 -0.000001 -0.000000 -8.435670 -9.782370 -3.899200 12.994200 -0.242716 4.980390 -88.213900 -5.204190 -71.031000 5.348090 -0.000007 -0.000001 -21.242400 -48.332900 -28.122800 24.328600 0.000019 0.000005 -7.657860 -9.030820 -40.564100 22.291600 -0.000001 0.000005 19.888400 5.274530 0.827912 12.994500 -0.242716 -4.980390 87.926900 7.781090 -75.031300 -5.348130 -0.000001 -0.000004 -54.064700 10.113500 1.208370 -24.328900 0.000322 -0.000009 -2.468890 -7.367580 -18.571200 -22.291500 -0.000108 -0.000004 15.335100 5.394740 -2.768160 -2.192480 -6.469440 -0.000000 -179.434000 -15.297400 -2.540310 39.081100 -0.000007 -0.000012 -0.146099 0.212940 34.454600 40.985400 -0.000006 -0.000013 2.239640 6.939010 -74.568900 11.754300 -0.000000 0.000003 -0.000052 -0.000581 -16.600100 -2.192510 6.469440 -0.000001 170.718000 14.414200 175.094000 -39.081100 -0.002282 -0.040193 0.038101 -0.043375 38.756100 -40.985400 0.000008 0.000006 4.106430 6.181090 -75.682100 -11.754300 -0.000006 -0.000006 -0.002039 -0.029206 -17.760700
